<svg width="32" height="32" viewBox="0 0 32 32" xmlns="http://www.w3.org/2000/svg">
  <!-- Purple background -->
  <rect width="32" height="32" fill="#6A0DAD" rx="6"/>
  
  <!-- Lightbulb outline (white) -->
  <path d="M16 6 C12 6, 9 9, 9 13 C9 15, 10 17, 11 19 L11 21 C11 22, 12 23, 13 23 L19 23 C20 23, 21 22, 21 21 L21 19 C22 17, 23 15, 23 13 C23 9, 20 6, 16 6 Z" 
        fill="none" 
        stroke="white" 
        stroke-width="2" 
        stroke-linecap="round" 
        stroke-linejoin="round"/>
  
  <!-- Lightbulb base (white rectangle) -->
  <rect x="13" y="23" width="6" height="3" fill="white" rx="1"/>
  
  <!-- Filament (yellow curved line) -->
  <path d="M14 12 Q16 14, 18 12" 
        fill="none" 
        stroke="#FFD700" 
        stroke-width="2" 
        stroke-linecap="round"/>
  
  <!-- Light rays (yellow) -->
  <line x1="16" y1="6" x2="16" y2="4" stroke="#FFD700" stroke-width="2" stroke-linecap="round"/>
  <line x1="16" y1="6" x2="14" y2="4" stroke="#FFD700" stroke-width="2" stroke-linecap="round"/>
  <line x1="16" y1="6" x2="18" y2="4" stroke="#FFD700" stroke-width="2" stroke-linecap="round"/>
  <line x1="16" y1="6" x2="16" y2="3" stroke="#FFD700" stroke-width="2" stroke-linecap="round"/>
</svg>
