<svg width="600" height="400" viewBox="0 0 600 400" fill="none" xmlns="http://www.w3.org/2000/svg">
  <defs>
    <linearGradient id="bgGradient" x1="0%" y1="0%" x2="100%" y2="100%">
      <stop offset="0%" style="stop-color:#f8fafc;stop-opacity:1" />
      <stop offset="100%" style="stop-color:#e2e8f0;stop-opacity:1" />
    </linearGradient>
  </defs>
  
  <!-- Background -->
  <rect width="600" height="400" fill="url(#bgGradient)" rx="12"/>
  
  <!-- Header -->
  <rect x="20" y="20" width="560" height="60" fill="white" rx="8"/>
  <rect x="40" y="40" width="120" height="20" fill="#6E46AE" rx="4"/>
  <rect x="500" y="35" width="60" height="30" fill="#00B6B4" rx="6"/>
  
  <!-- Chart Area -->
  <rect x="20" y="100" width="560" height="280" fill="white" rx="8"/>
  
  <!-- Chart Title -->
  <rect x="40" y="120" width="200" height="20" fill="#1e293b" rx="2"/>
  
  <!-- Chart Grid -->
  <line x1="40" y1="160" x2="560" y2="160" stroke="#e2e8f0" stroke-width="1"/>
  <line x1="40" y1="200" x2="560" y2="200" stroke="#e2e8f0" stroke-width="1"/>
  <line x1="40" y1="240" x2="560" y2="240" stroke="#e2e8f0" stroke-width="1"/>
  <line x1="40" y1="280" x2="560" y2="280" stroke="#e2e8f0" stroke-width="1"/>
  <line x1="40" y1="320" x2="560" y2="320" stroke="#e2e8f0" stroke-width="1"/>
  
  <!-- Chart Bars -->
  <rect x="60" y="280" width="40" height="80" fill="#6E46AE" rx="2"/>
  <rect x="120" y="240" width="40" height="120" fill="#00B6B4" rx="2"/>
  <rect x="180" y="200" width="40" height="160" fill="#f59e0b" rx="2"/>
  <rect x="240" y="160" width="40" height="200" fill="#ef4444" rx="2"/>
  <rect x="300" y="220" width="40" height="140" fill="#10b981" rx="2"/>
  <rect x="360" y="260" width="40" height="100" fill="#8b5cf6" rx="2"/>
  <rect x="420" y="300" width="40" height="60" fill="#f97316" rx="2"/>
  <rect x="480" y="320" width="40" height="40" fill="#06b6d4" rx="2"/>
  
  <!-- Chart Labels -->
  <rect x="60" y="330" width="40" height="8" fill="#64748b" rx="1"/>
  <rect x="120" y="330" width="40" height="8" fill="#64748b" rx="1"/>
  <rect x="180" y="330" width="40" height="8" fill="#64748b" rx="1"/>
  <rect x="240" y="330" width="40" height="8" fill="#64748b" rx="1"/>
  <rect x="300" y="330" width="40" height="8" fill="#64748b" rx="1"/>
  <rect x="360" y="330" width="40" height="8" fill="#64748b" rx="1"/>
  <rect x="420" y="330" width="40" height="8" fill="#64748b" rx="1"/>
  <rect x="480" y="330" width="40" height="8" fill="#64748b" rx="1"/>
  
  <!-- Legend -->
  <rect x="40" y="350" width="200" height="20" fill="#f8fafc" rx="4"/>
  <rect x="50" y="355" width="10" height="10" fill="#6E46AE" rx="1"/>
  <rect x="70" y="355" width="10" height="10" fill="#00B6B4" rx="1"/>
  <rect x="90" y="355" width="10" height="10" fill="#f59e0b" rx="1"/>
  <rect x="110" y="355" width="10" height="10" fill="#ef4444" rx="1"/>
  <rect x="130" y="355" width="10" height="10" fill="#10b981" rx="1"/>
</svg>
