<svg width="600" height="400" viewBox="0 0 600 400" fill="none" xmlns="http://www.w3.org/2000/svg">
  <defs>
    <linearGradient id="bgGradient" x1="0%" y1="0%" x2="100%" y2="100%">
      <stop offset="0%" style="stop-color:#f8fafc;stop-opacity:1" />
      <stop offset="100%" style="stop-color:#e2e8f0;stop-opacity:1" />
    </linearGradient>
  </defs>
  
  <!-- Background -->
  <rect width="600" height="400" fill="url(#bgGradient)" rx="12"/>
  
  <!-- Header -->
  <rect x="20" y="20" width="560" height="60" fill="white" rx="8"/>
  <rect x="40" y="40" width="120" height="20" fill="#6E46AE" rx="4"/>
  <rect x="500" y="35" width="60" height="30" fill="#00B6B4" rx="6"/>
  
  <!-- Search Bar -->
  <rect x="20" y="100" width="560" height="50" fill="white" rx="8"/>
  <rect x="40" y="115" width="400" height="20" fill="#f1f5f9" rx="4"/>
  <rect x="480" y="110" width="80" height="30" fill="#6E46AE" rx="6"/>
  
  <!-- Candidate Cards -->
  <!-- Card 1 -->
  <rect x="20" y="170" width="560" height="60" fill="white" rx="8"/>
  <circle cx="60" cy="200" r="15" fill="#6E46AE"/>
  <rect x="90" y="185" width="120" height="12" fill="#1e293b" rx="2"/>
  <rect x="90" y="205" width="80" height="8" fill="#64748b" rx="2"/>
  <rect x="90" y="220" width="100" height="8" fill="#64748b" rx="2"/>
  <rect x="450" y="185" width="60" height="20" fill="#00B6B4" rx="4"/>
  <rect x="530" y="185" width="30" height="20" fill="#f59e0b" rx="4"/>
  
  <!-- Card 2 -->
  <rect x="20" y="240" width="560" height="60" fill="white" rx="8"/>
  <circle cx="60" cy="270" r="15" fill="#00B6B4"/>
  <rect x="90" y="255" width="120" height="12" fill="#1e293b" rx="2"/>
  <rect x="90" y="275" width="80" height="8" fill="#64748b" rx="2"/>
  <rect x="90" y="290" width="100" height="8" fill="#64748b" rx="2"/>
  <rect x="450" y="255" width="60" height="20" fill="#f59e0b" rx="4"/>
  <rect x="530" y="255" width="30" height="20" fill="#ef4444" rx="4"/>
  
  <!-- Card 3 -->
  <rect x="20" y="310" width="560" height="60" fill="white" rx="8"/>
  <circle cx="60" cy="340" r="15" fill="#f59e0b"/>
  <rect x="90" y="325" width="120" height="12" fill="#1e293b" rx="2"/>
  <rect x="90" y="345" width="80" height="8" fill="#64748b" rx="2"/>
  <rect x="90" y="360" width="100" height="8" fill="#64748b" rx="2"/>
  <rect x="450" y="325" width="60" height="20" fill="#10b981" rx="4"/>
  <rect x="530" y="325" width="30" height="20" fill="#6E46AE" rx="4"/>
</svg>
