<svg width="600" height="400" viewBox="0 0 600 400" fill="none" xmlns="http://www.w3.org/2000/svg">
  <defs>
    <linearGradient id="bgGradient" x1="0%" y1="0%" x2="100%" y2="100%">
      <stop offset="0%" style="stop-color:#f8fafc;stop-opacity:1" />
      <stop offset="100%" style="stop-color:#e2e8f0;stop-opacity:1" />
    </linearGradient>
  </defs>
  
  <!-- Background -->
  <rect width="600" height="400" fill="url(#bgGradient)" rx="12"/>
  
  <!-- Header -->
  <rect x="20" y="20" width="560" height="60" fill="white" rx="8"/>
  <rect x="40" y="40" width="120" height="20" fill="#6E46AE" rx="4"/>
  <rect x="500" y="35" width="60" height="30" fill="#00B6B4" rx="6"/>
  
  <!-- Sidebar -->
  <rect x="20" y="100" width="150" height="280" fill="white" rx="8"/>
  <rect x="40" y="120" width="110" height="15" fill="#64748b" rx="3"/>
  <rect x="40" y="145" width="90" height="15" fill="#64748b" rx="3"/>
  <rect x="40" y="170" width="100" height="15" fill="#64748b" rx="3"/>
  <rect x="40" y="195" width="80" height="15" fill="#64748b" rx="3"/>
  
  <!-- Main Content -->
  <rect x="190" y="100" width="390" height="280" fill="white" rx="8"/>
  
  <!-- Stats Cards -->
  <rect x="210" y="120" width="80" height="60" fill="#f1f5f9" rx="6"/>
  <rect x="220" y="130" width="60" height="8" fill="#6E46AE" rx="2"/>
  <rect x="220" y="145" width="40" height="6" fill="#64748b" rx="2"/>
  <rect x="220" y="155" width="50" height="6" fill="#64748b" rx="2"/>
  
  <rect x="310" y="120" width="80" height="60" fill="#f1f5f9" rx="6"/>
  <rect x="320" y="130" width="60" height="8" fill="#00B6B4" rx="2"/>
  <rect x="320" y="145" width="40" height="6" fill="#64748b" rx="2"/>
  <rect x="320" y="155" width="50" height="6" fill="#64748b" rx="2"/>
  
  <rect x="410" y="120" width="80" height="60" fill="#f1f5f9" rx="6"/>
  <rect x="420" y="130" width="60" height="8" fill="#f59e0b" rx="2"/>
  <rect x="420" y="145" width="40" height="6" fill="#64748b" rx="2"/>
  <rect x="420" y="155" width="50" height="6" fill="#64748b" rx="2"/>
  
  <!-- Pipeline -->
  <rect x="210" y="200" width="360" height="160" fill="#f8fafc" rx="6"/>
  <rect x="220" y="210" width="80" height="20" fill="#6E46AE" rx="4"/>
  <rect x="220" y="240" width="70" height="12" fill="#e2e8f0" rx="2"/>
  <rect x="220" y="260" width="70" height="12" fill="#e2e8f0" rx="2"/>
  <rect x="220" y="280" width="70" height="12" fill="#e2e8f0" rx="2"/>
  
  <rect x="320" y="240" width="70" height="12" fill="#e2e8f0" rx="2"/>
  <rect x="320" y="260" width="70" height="12" fill="#e2e8f0" rx="2"/>
  <rect x="320" y="280" width="70" height="12" fill="#e2e8f0" rx="2"/>
  
  <rect x="420" y="240" width="70" height="12" fill="#e2e8f0" rx="2"/>
  <rect x="420" y="260" width="70" height="12" fill="#e2e8f0" rx="2"/>
  <rect x="420" y="280" width="70" height="12" fill="#e2e8f0" rx="2"/>
  
  <rect x="520" y="240" width="70" height="12" fill="#e2e8f0" rx="2"/>
  <rect x="520" y="260" width="70" height="12" fill="#e2e8f0" rx="2"/>
  <rect x="520" y="280" width="70" height="12" fill="#e2e8f0" rx="2"/>
</svg>
